<svg width="884" height="92" viewBox="0 0 884 92" fill="none" xmlns="http://www.w3.org/2000/svg">
<path d="M48.0312 27H60.3125C58.2031 11.9062 46.625 3.1875 31.625 3.1875C13.8594 3.1875 0.546875 16.125 0.59375 38.0625C0.546875 59.9531 13.7188 72.9375 31.625 72.9375C47.7031 72.9375 58.4375 62.5312 60.3125 49.5H48.0312C46.3906 57.4688 39.875 61.9688 31.8125 61.9688C20.75 61.9688 12.8281 53.6719 12.875 38.0625C12.8281 22.6875 20.7031 14.1562 31.8125 14.1562C40.0625 14.1562 46.5781 18.8438 48.0312 27ZM67.9062 57.6562C67.9062 67.7344 75.2656 73.0312 84.9688 73.0312C92.9844 73.0312 97.7188 69.2812 99.9688 64.9688H100.344V72H111.781V37.9688C111.781 24.4219 100.625 20.4375 90.9688 20.4375C78.2188 20.4375 70.4375 26.9531 69.5938 35.625H81.125C82.0625 31.9688 85.3438 29.5312 90.6875 29.5312C96.6406 29.5312 99.875 32.4375 99.875 37.5L99.9219 41.5781C97.6719 41.6719 90.4062 42 86.8438 42.2812C77.4219 42.8906 67.9062 46.2188 67.9062 57.6562ZM79.4375 57.5625C79.4375 53.1094 83.0469 50.7188 88.7188 50.25C91.1094 50.0625 97.7656 49.6406 99.9219 49.5469L99.9688 53.7188C99.9688 59.4375 95.3281 64.2188 88.0625 64.2188C83.0469 64.2188 79.4375 61.9688 79.4375 57.5625ZM148.438 21.0938H138.406V8.90625H126.5V21.0938H119.188V30.2812H126.5V58.6875C126.406 68.25 133.344 72.7031 142.344 72.6562C145.391 72.7031 147.688 72.4219 149.094 72.1875V62.4375C147.594 62.5312 145.25 62.6719 143.844 62.625C140.844 62.5781 138.406 61.5938 138.406 56.7188V30.2812H148.438V21.0938ZM179.281 73.0312C192.078 73.0312 200.234 65.3906 201.125 54.6562H189.688C188.609 60.1406 184.672 63.2344 179.375 63.2812C171.875 63.2344 167 57 167 46.5C167 36.2344 171.969 30.0469 179.375 30C185.188 30.0469 188.75 33.75 189.688 38.625H201.125C200.281 27.6562 191.609 20.4375 179.281 20.4375C164.375 20.4375 154.906 31.1719 154.906 46.7812C154.906 62.1562 164.094 73.0312 179.281 73.0312ZM222.125 42.1875C222.125 34.7812 226.719 30.5156 233.188 30.5625C239.469 30.5156 243.172 34.5 243.219 41.4375V72H255.125V39.5625C255.125 27.2812 248.141 20.4375 237.594 20.4375C229.766 20.4375 224.797 23.9531 222.5 29.7188H221.844V4.125H210.125V72H222.125V42.1875ZM289.812 4.125V72H301.625V25.125H302.188L321.031 71.8125H329.75L348.594 25.3125H349.25V72H360.969V4.125H345.969L325.812 53.4375H324.969L304.812 4.125H289.812ZM395.562 73.0312C407.375 73.0312 415.531 67.2188 417.688 58.4062H405.969C404.422 61.4531 400.906 63.7031 395.656 63.6562C387.922 63.7031 382.812 58.5469 382.625 49.875H418.156V46.125C418.156 28.2656 407.375 20.4375 394.906 20.4375C380.375 20.4375 370.812 31.125 370.812 46.875C370.812 62.8125 380.234 73.0312 395.562 73.0312ZM382.672 41.7188C383.094 35.25 387.922 29.7188 395.094 29.7188C401.984 29.7188 406.672 34.7812 406.719 41.7188H382.672ZM462.969 4.125H450.781V72H462.969V4.125ZM500.844 21.0938H490.344V17.3438C490.297 12.7031 492.734 10.8281 497.562 10.7812C498.453 10.8281 499.906 10.875 501.875 11.1562V1.6875C499.625 1.21875 497.047 0.9375 494.281 0.9375C484.484 0.9375 478.344 6.32812 478.344 16.2188V21.0938H470.75V30.2812H478.344V72H490.344V30.2812H500.844V21.0938ZM539.375 91.125C548.938 91.0781 554.281 86.2969 557.188 78.1875L577.625 21.0938H564.969L553.156 59.5312H552.594L540.781 21.0938H528.125L546.688 73.0312L545.656 75.75C543.594 81.2344 541.156 81.4219 538.25 81.4688C536.656 81.4219 534.641 81.4219 533.188 81.2812V90.8438C534.734 91.0312 536.984 91.0781 539.375 91.125ZM605.562 73.0312C620.469 73.0312 629.984 62.4844 629.938 46.7812C629.984 30.9375 620.469 20.4375 605.562 20.4375C590.703 20.4375 581.188 30.9375 581.188 46.7812C581.188 62.4844 590.703 73.0312 605.562 73.0312ZM593.281 46.6875C593.281 37.3594 597.359 29.8594 605.656 29.9062C613.812 29.8594 617.891 37.3594 617.844 46.6875C617.891 56.0156 613.812 63.4688 605.656 63.4688C597.359 63.4688 593.281 56.0156 593.281 46.6875ZM671.75 50.625C671.75 58.4062 666.125 62.25 660.875 62.25C655.062 62.25 651.219 58.125 651.219 51.6562V21.0938H639.219V53.5312C639.266 65.7188 646.203 72.6562 656.281 72.6562C663.875 72.6562 669.219 68.6719 671.562 63H672.125V72H683.656V21.0938H671.75V50.625ZM764.188 27H776.469C774.359 11.9062 762.781 3.1875 747.781 3.1875C730.016 3.1875 716.703 16.125 716.75 38.0625C716.703 59.9531 729.875 72.9375 747.781 72.9375C763.859 72.9375 774.594 62.5312 776.469 49.5H764.188C762.547 57.4688 756.031 61.9688 747.969 61.9688C736.906 61.9688 728.984 53.6719 729.031 38.0625C728.984 22.6875 736.859 14.1562 747.969 14.1562C756.219 14.1562 762.734 18.8438 764.188 27ZM784.062 57.6562C784.062 67.7344 791.422 73.0312 801.125 73.0312C809.141 73.0312 813.875 69.2812 816.125 64.9688H816.5V72H827.938V37.9688C827.938 24.4219 816.781 20.4375 807.125 20.4375C794.375 20.4375 786.594 26.9531 785.75 35.625H797.281C798.219 31.9688 801.5 29.5312 806.844 29.5312C812.797 29.5312 816.031 32.4375 816.031 37.5L816.078 41.5781C813.828 41.6719 806.562 42 803 42.2812C793.578 42.8906 784.062 46.2188 784.062 57.6562ZM795.594 57.5625C795.594 53.1094 799.203 50.7188 804.875 50.25C807.266 50.0625 813.922 49.6406 816.078 49.5469L816.125 53.7188C816.125 59.4375 811.484 64.2188 804.219 64.2188C799.203 64.2188 795.594 61.9688 795.594 57.5625ZM851.188 42.1875C851.188 34.7812 855.641 30.5156 861.969 30.5625C868.203 30.5156 871.906 34.5938 871.906 41.4375V72H883.812V39.5625C883.859 27.375 876.922 20.4375 866.375 20.4375C858.781 20.4375 853.578 24.0469 851.281 29.7188H850.625V21.0938H839.188V72H851.188V42.1875Z" fill="white"/>
</svg>
