<svg width="181" height="106" viewBox="0 0 181 106" fill="none" xmlns="http://www.w3.org/2000/svg">
<ellipse cx="50.5" cy="53" rx="50.5" ry="53" fill="url(#paint0_linear_5_91)"/>
<path d="M87.8398 38.625H90.3984C89.959 35.4805 87.5469 33.6641 84.4219 33.6641C80.7207 33.6641 77.9473 36.3594 77.957 40.9297C77.9473 45.4902 80.6914 48.1953 84.4219 48.1953C87.7715 48.1953 90.0078 46.0273 90.3984 43.3125H87.8398C87.498 44.9727 86.1406 45.9102 84.4609 45.9102C82.1562 45.9102 80.5059 44.1816 80.5156 40.9297C80.5059 37.7266 82.1465 35.9492 84.4609 35.9492C86.1797 35.9492 87.5371 36.9258 87.8398 38.625ZM91.9805 45.0117C91.9805 47.1113 93.5137 48.2148 95.5352 48.2148C97.2051 48.2148 98.1914 47.4336 98.6602 46.5352H98.7383V48H101.121V40.9102C101.121 38.0879 98.7969 37.2578 96.7852 37.2578C94.1289 37.2578 92.5078 38.6152 92.332 40.4219H94.7344C94.9297 39.6602 95.6133 39.1523 96.7266 39.1523C97.9668 39.1523 98.6406 39.7578 98.6406 40.8125L98.6504 41.6621C98.1816 41.6816 96.668 41.75 95.9258 41.8086C93.9629 41.9355 91.9805 42.6289 91.9805 45.0117ZM94.3828 44.9922C94.3828 44.0645 95.1348 43.5664 96.3164 43.4688C96.8145 43.4297 98.2012 43.3418 98.6504 43.3223L98.6602 44.1914C98.6602 45.3828 97.6934 46.3789 96.1797 46.3789C95.1348 46.3789 94.3828 45.9102 94.3828 44.9922ZM108.758 37.3945H106.668V34.8555H104.188V37.3945H102.664V39.3086H104.188V45.2266C104.168 47.2188 105.613 48.1465 107.488 48.1367C108.123 48.1465 108.602 48.0879 108.895 48.0391V46.0078C108.582 46.0273 108.094 46.0566 107.801 46.0469C107.176 46.0371 106.668 45.832 106.668 44.8164V39.3086H108.758V37.3945ZM115.184 48.2148C117.85 48.2148 119.549 46.623 119.734 44.3867H117.352C117.127 45.5293 116.307 46.1738 115.203 46.1836C113.641 46.1738 112.625 44.875 112.625 42.6875C112.625 40.5488 113.66 39.2598 115.203 39.25C116.414 39.2598 117.156 40.0312 117.352 41.0469H119.734C119.559 38.7617 117.752 37.2578 115.184 37.2578C112.078 37.2578 110.105 39.4941 110.105 42.7461C110.105 45.9492 112.02 48.2148 115.184 48.2148ZM124.109 41.7891C124.109 40.2461 125.066 39.3574 126.414 39.3672C127.723 39.3574 128.494 40.1875 128.504 41.6328V48H130.984V41.2422C130.984 38.6836 129.529 37.2578 127.332 37.2578C125.701 37.2578 124.666 37.9902 124.188 39.1914H124.051V33.8594H121.609V48H124.109V41.7891ZM138.211 33.8594V48H140.672V38.2344H140.789L144.715 47.9609H146.531L150.457 38.2734H150.594V48H153.035V33.8594H149.91L145.711 44.1328H145.535L141.336 33.8594H138.211ZM160.242 48.2148C162.703 48.2148 164.402 47.0039 164.852 45.168H162.41C162.088 45.8027 161.355 46.2715 160.262 46.2617C158.65 46.2715 157.586 45.1973 157.547 43.3906H164.949V42.6094C164.949 38.8887 162.703 37.2578 160.105 37.2578C157.078 37.2578 155.086 39.4844 155.086 42.7656C155.086 46.0859 157.049 48.2148 160.242 48.2148ZM157.557 41.6914C157.645 40.3438 158.65 39.1914 160.145 39.1914C161.58 39.1914 162.557 40.2461 162.566 41.6914H157.557ZM80.8477 57.8594H78.3086V72H80.8477V57.8594ZM88.7383 61.3945H86.5508V60.6133C86.541 59.6465 87.0488 59.2559 88.0547 59.2461C88.2402 59.2559 88.543 59.2656 88.9531 59.3242V57.3516C88.4844 57.2539 87.9473 57.1953 87.3711 57.1953C85.3301 57.1953 84.0508 58.3184 84.0508 60.3789V61.3945H82.4688V63.3086H84.0508V72H86.5508V63.3086H88.7383V61.3945ZM94.4023 57.8594L99.5586 66.707V72H102.098V66.707L107.234 57.8594H104.363L100.887 64.1094H100.75L97.2734 57.8594H94.4023ZM111.434 72.2148C114.539 72.2148 116.521 70.0176 116.512 66.7461C116.521 63.4453 114.539 61.2578 111.434 61.2578C108.338 61.2578 106.355 63.4453 106.355 66.7461C106.355 70.0176 108.338 72.2148 111.434 72.2148ZM108.875 66.7266C108.875 64.7832 109.725 63.2207 111.453 63.2305C113.152 63.2207 114.002 64.7832 113.992 66.7266C114.002 68.6699 113.152 70.2227 111.453 70.2227C109.725 70.2227 108.875 68.6699 108.875 66.7266ZM125.223 67.5469C125.223 69.168 124.051 69.9688 122.957 69.9688C121.746 69.9688 120.945 69.1094 120.945 67.7617V61.3945H118.445V68.1523C118.455 70.6914 119.9 72.1367 122 72.1367C123.582 72.1367 124.695 71.3066 125.184 70.125H125.301V72H127.703V61.3945H125.223V67.5469ZM144.48 62.625H147.039C146.6 59.4805 144.188 57.6641 141.062 57.6641C137.361 57.6641 134.588 60.3594 134.598 64.9297C134.588 69.4902 137.332 72.1953 141.062 72.1953C144.412 72.1953 146.648 70.0273 147.039 67.3125H144.48C144.139 68.9727 142.781 69.9102 141.102 69.9102C138.797 69.9102 137.146 68.1816 137.156 64.9297C137.146 61.7266 138.787 59.9492 141.102 59.9492C142.82 59.9492 144.178 60.9258 144.48 62.625ZM148.621 69.0117C148.621 71.1113 150.154 72.2148 152.176 72.2148C153.846 72.2148 154.832 71.4336 155.301 70.5352H155.379V72H157.762V64.9102C157.762 62.0879 155.438 61.2578 153.426 61.2578C150.77 61.2578 149.148 62.6152 148.973 64.4219H151.375C151.57 63.6602 152.254 63.1523 153.367 63.1523C154.607 63.1523 155.281 63.7578 155.281 64.8125L155.291 65.6621C154.822 65.6816 153.309 65.75 152.566 65.8086C150.604 65.9355 148.621 66.6289 148.621 69.0117ZM151.023 68.9922C151.023 68.0645 151.775 67.5664 152.957 67.4688C153.455 67.4297 154.842 67.3418 155.291 67.3223L155.301 68.1914C155.301 69.3828 154.334 70.3789 152.82 70.3789C151.775 70.3789 151.023 69.9102 151.023 68.9922ZM162.605 65.7891C162.605 64.2461 163.533 63.3574 164.852 63.3672C166.15 63.3574 166.922 64.207 166.922 65.6328V72H169.402V65.2422C169.412 62.7031 167.967 61.2578 165.77 61.2578C164.188 61.2578 163.104 62.0098 162.625 63.1914H162.488V61.3945H160.105V72H162.605V65.7891Z" fill="white"/>
<defs>
<linearGradient id="paint0_linear_5_91" x1="16.8333" y1="14.1534" x2="77.4227" y2="92.5004" gradientUnits="userSpaceOnUse">
<stop stop-color="#FF8484"/>
<stop offset="0.973958" stop-color="#433939"/>
</linearGradient>
</defs>
</svg>
