<svg width="893" height="92" viewBox="0 0 893 92" fill="none" xmlns="http://www.w3.org/2000/svg">
<path d="M48.0312 27H60.3125C58.2031 11.9062 46.625 3.1875 31.625 3.1875C13.8594 3.1875 0.546875 16.125 0.59375 38.0625C0.546875 59.9531 13.7188 72.9375 31.625 72.9375C47.7031 72.9375 58.4375 62.5312 60.3125 49.5H48.0312C46.3906 57.4688 39.875 61.9688 31.8125 61.9688C20.75 61.9688 12.8281 53.6719 12.875 38.0625C12.8281 22.6875 20.7031 14.1562 31.8125 14.1562C40.0625 14.1562 46.5781 18.8438 48.0312 27ZM67.9062 57.6562C67.9062 67.7344 75.2656 73.0312 84.9688 73.0312C92.9844 73.0312 97.7188 69.2812 99.9688 64.9688H100.344V72H111.781V37.9688C111.781 24.4219 100.625 20.4375 90.9688 20.4375C78.2188 20.4375 70.4375 26.9531 69.5938 35.625H81.125C82.0625 31.9688 85.3438 29.5312 90.6875 29.5312C96.6406 29.5312 99.875 32.4375 99.875 37.5L99.9219 41.5781C97.6719 41.6719 90.4062 42 86.8438 42.2812C77.4219 42.8906 67.9062 46.2188 67.9062 57.6562ZM79.4375 57.5625C79.4375 53.1094 83.0469 50.7188 88.7188 50.25C91.1094 50.0625 97.7656 49.6406 99.9219 49.5469L99.9688 53.7188C99.9688 59.4375 95.3281 64.2188 88.0625 64.2188C83.0469 64.2188 79.4375 61.9688 79.4375 57.5625ZM148.438 21.0938H138.406V8.90625H126.5V21.0938H119.188V30.2812H126.5V58.6875C126.406 68.25 133.344 72.7031 142.344 72.6562C145.391 72.7031 147.688 72.4219 149.094 72.1875V62.4375C147.594 62.5312 145.25 62.6719 143.844 62.625C140.844 62.5781 138.406 61.5938 138.406 56.7188V30.2812H148.438V21.0938ZM179.281 73.0312C192.078 73.0312 200.234 65.3906 201.125 54.6562H189.688C188.609 60.1406 184.672 63.2344 179.375 63.2812C171.875 63.2344 167 57 167 46.5C167 36.2344 171.969 30.0469 179.375 30C185.188 30.0469 188.75 33.75 189.688 38.625H201.125C200.281 27.6562 191.609 20.4375 179.281 20.4375C164.375 20.4375 154.906 31.1719 154.906 46.7812C154.906 62.1562 164.094 73.0312 179.281 73.0312ZM222.125 42.1875C222.125 34.7812 226.719 30.5156 233.188 30.5625C239.469 30.5156 243.172 34.5 243.219 41.4375V72H255.125V39.5625C255.125 27.2812 248.141 20.4375 237.594 20.4375C229.766 20.4375 224.797 23.9531 222.5 29.7188H221.844V4.125H210.125V72H222.125V42.1875ZM289.812 4.125V72H301.625V25.125H302.188L321.031 71.8125H329.75L348.594 25.3125H349.25V72H360.969V4.125H345.969L325.812 53.4375H324.969L304.812 4.125H289.812ZM395.562 73.0312C407.375 73.0312 415.531 67.2188 417.688 58.4062H405.969C404.422 61.4531 400.906 63.7031 395.656 63.6562C387.922 63.7031 382.812 58.5469 382.625 49.875H418.156V46.125C418.156 28.2656 407.375 20.4375 394.906 20.4375C380.375 20.4375 370.812 31.125 370.812 46.875C370.812 62.8125 380.234 73.0312 395.562 73.0312ZM382.672 41.7188C383.094 35.25 387.922 29.7188 395.094 29.7188C401.984 29.7188 406.672 34.7812 406.719 41.7188H382.672ZM441.031 65.3438H429.125L424.25 91.5938H433.156L441.031 65.3438ZM487.438 4.125H475.25V72H487.438V4.125ZM525.312 21.0938H514.812V17.3438C514.766 12.7031 517.203 10.8281 522.031 10.7812C522.922 10.8281 524.375 10.875 526.344 11.1562V1.6875C524.094 1.21875 521.516 0.9375 518.75 0.9375C508.953 0.9375 502.812 6.32812 502.812 16.2188V21.0938H495.219V30.2812H502.812V72H514.812V30.2812H525.312V21.0938ZM563.844 91.125C573.406 91.0781 578.75 86.2969 581.656 78.1875L602.094 21.0938H589.438L577.625 59.5312H577.062L565.25 21.0938H552.594L571.156 73.0312L570.125 75.75C568.062 81.2344 565.625 81.4219 562.719 81.4688C561.125 81.4219 559.109 81.4219 557.656 81.2812V90.8438C559.203 91.0312 561.453 91.0781 563.844 91.125ZM630.031 73.0312C644.938 73.0312 654.453 62.4844 654.406 46.7812C654.453 30.9375 644.938 20.4375 630.031 20.4375C615.172 20.4375 605.656 30.9375 605.656 46.7812C605.656 62.4844 615.172 73.0312 630.031 73.0312ZM617.75 46.6875C617.75 37.3594 621.828 29.8594 630.125 29.9062C638.281 29.8594 642.359 37.3594 642.312 46.6875C642.359 56.0156 638.281 63.4688 630.125 63.4688C621.828 63.4688 617.75 56.0156 617.75 46.6875ZM696.219 50.625C696.219 58.4062 690.594 62.25 685.344 62.25C679.531 62.25 675.688 58.125 675.688 51.6562V21.0938H663.688V53.5312C663.734 65.7188 670.672 72.6562 680.75 72.6562C688.344 72.6562 693.688 68.6719 696.031 63H696.594V72H708.125V21.0938H696.219V50.625ZM764.562 73.0312C777.359 73.0312 785.516 65.3906 786.406 54.6562H774.969C773.891 60.1406 769.953 63.2344 764.656 63.2812C757.156 63.2344 752.281 57 752.281 46.5C752.281 36.2344 757.25 30.0469 764.656 30C770.469 30.0469 774.031 33.75 774.969 38.625H786.406C785.562 27.6562 776.891 20.4375 764.562 20.4375C749.656 20.4375 740.188 31.1719 740.188 46.7812C740.188 62.1562 749.375 73.0312 764.562 73.0312ZM793.062 57.6562C793.062 67.7344 800.422 73.0312 810.125 73.0312C818.141 73.0312 822.875 69.2812 825.125 64.9688H825.5V72H836.938V37.9688C836.938 24.4219 825.781 20.4375 816.125 20.4375C803.375 20.4375 795.594 26.9531 794.75 35.625H806.281C807.219 31.9688 810.5 29.5312 815.844 29.5312C821.797 29.5312 825.031 32.4375 825.031 37.5L825.078 41.5781C822.828 41.6719 815.562 42 812 42.2812C802.578 42.8906 793.062 46.2188 793.062 57.6562ZM804.594 57.5625C804.594 53.1094 808.203 50.7188 813.875 50.25C816.266 50.0625 822.922 49.6406 825.078 49.5469L825.125 53.7188C825.125 59.4375 820.484 64.2188 813.219 64.2188C808.203 64.2188 804.594 61.9688 804.594 57.5625ZM860.188 42.1875C860.188 34.7812 864.641 30.5156 870.969 30.5625C877.203 30.5156 880.906 34.5938 880.906 41.4375V72H892.812V39.5625C892.859 27.375 885.922 20.4375 875.375 20.4375C867.781 20.4375 862.578 24.0469 860.281 29.7188H859.625V21.0938H848.188V72H860.188V42.1875Z" fill="url(#paint0_linear_5_42)"/>
<defs>
<linearGradient id="paint0_linear_5_42" x1="456" y1="1" x2="456.5" y2="119" gradientUnits="userSpaceOnUse">
<stop stop-color="#FF7D7D"/>
<stop offset="1" stop-color="#734141"/>
</linearGradient>
</defs>
</svg>
