<svg width="70" height="33" viewBox="0 0 70 33" fill="none" xmlns="http://www.w3.org/2000/svg">
<path d="M48 29.1225L61.5978 16.5L48 3.8775L52.1862 0L70 16.5L52.1862 33L48 29.1225Z" fill="white"/>
<path d="M7.13379 11.2627H1.08398V20.1104H2.13867C4.60693 20.1104 6.21094 20.0371 8.07129 19.6709L7.89551 18.3525C6.25488 18.6602 4.79736 18.748 2.72461 18.7627V12.5957H7.13379V11.2627ZM6.43066 16.0527H9.93164V23.3184H11.5576V10.0615H9.93164V14.7197H6.43066V16.0527ZM25.5029 20.374H20.2295V17.7959H24.126V10.9404H22.5V13.1084H16.3623V10.9404H14.7363V17.7959H18.6182V20.374H13.4033V21.707H25.5029V20.374ZM16.3623 16.4775V14.4121H22.5V16.4775H16.3623ZM37.4268 10.0615H35.7861V23.3037H37.4268V10.0615ZM26.4551 19.6562L27.3047 20.96C31.9409 18.7554 33.4717 15.4082 33.4717 11.4678H27.1289V12.7568H31.8164C31.5234 15.7671 29.9268 18.0083 26.4551 19.6562Z" fill="white"/>
</svg>
